<svg width="498" height="87" viewBox="0 0 498 87" fill="none" xmlns="http://www.w3.org/2000/svg">
<g clip-path="url(#clip0_3_29)">
<path d="M68.5345 9.05173H6.46552C2.94569 9.05173 0 11.9961 0 15.5172V55.6034C0 59.1246 2.94569 62.069 6.46552 62.069H25.8621L37.5 75L49.1379 62.069H68.5345C72.0543 62.069 75 59.1246 75 55.6034V15.5172C75 11.9961 72.0543 9.05173 68.5345 9.05173Z" fill="#25D366"/>
<path d="M65.9483 9.05173V4.90474C65.9483 2.23448 63.7138 0 61.0435 0H13.9565C11.2862 0 9.05173 2.23448 9.05173 4.90474V9.05173H65.9483Z" fill="#2BB741"/>
<path d="M20.6897 40.0669C22.8321 40.0669 24.569 38.33 24.569 36.1876C24.569 34.0451 22.8321 32.3082 20.6897 32.3082C18.5472 32.3082 16.8103 34.0451 16.8103 36.1876C16.8103 38.33 18.5472 40.0669 20.6897 40.0669Z" fill="white"/>
<path d="M37.5 40.0669C39.6425 40.0669 41.3793 38.33 41.3793 36.1876C41.3793 34.0451 39.6425 32.3082 37.5 32.3082C35.3575 32.3082 33.6207 34.0451 33.6207 36.1876C33.6207 38.33 35.3575 40.0669 37.5 40.0669Z" fill="white"/>
<path d="M54.3104 40.0669C56.4528 40.0669 58.1897 38.33 58.1897 36.1876C58.1897 34.0451 56.4528 32.3082 54.3104 32.3082C52.1679 32.3082 50.431 34.0451 50.431 36.1876C50.431 38.33 52.1679 40.0669 54.3104 40.0669Z" fill="white"/>
<!-- <path d="M150 20 L350 20" stroke="#25D366" stroke-width="8"/> -->
<text x="150" y="55" font-family="Arial" font-size="42" font-weight="bold" fill="#25D366">WhatsApp Clone</text>
</g>
<defs>
<clipPath id="clip0_3_29">
<rect width="497.4" height="87" fill="white"/>
</clipPath>
</defs>
</svg>
